<svg width="95px" height="52px" viewBox="658 6 95 52" version="1.1" xmlns="http://www.w3.org/2000/svg" xmlns:xlink="http://www.w3.org/1999/xlink">
    <!-- Generator: Sketch 3.7.2 (28276) - http://www.bohemiancoding.com/sketch -->
    <desc>Created with Sketch.</desc>
    <defs>
        <polygon id="path-1" points="39.6986647 0.0442110874 0.000159158294 0.0442110874 0.000159158294 50.3088863 39.6986647 50.3088863 39.6986647 0.0442110874"></polygon>
        <polygon id="path-3" points="6.88146825 8.57481663 6.88146825 0.697620469 0.224003968 0.697620469 0.224003968 8.57481663 6.88146825 8.57481663"></polygon>
    </defs>
    <g id="logo" stroke="none" stroke-width="1" fill="none" fill-rule="evenodd" transform="translate(658.000000, 6.000000)">
        <path d="M28.5270675,39.3888774 C28.5195278,37.8392026 28.3544087,28.3688827 25.165123,28.2065213 C24.8273452,28.1905139 20.1203214,28.1889893 19.4394881,28.1889893 C18.9938929,28.1889893 15.0777817,28.1889893 14.7905198,28.1973742 C11.6223452,28.3063774 11.8560754,38.6266173 11.8560754,38.6266173 C11.8560754,38.6266173 11.5507183,38.6090853 11.2973849,38.6266173 C11.2438532,38.3765959 9.76004365,32.5491173 9.31294048,27.3162015 C8.95932937,23.1702687 9.51952778,18.6172889 10.0254405,15.1665373 C10.0993294,15.1680618 10.417504,15.1779712 10.5027024,15.1810203 C10.7409563,19.0502527 12.1591706,24.5400501 13.481631,24.7275661 C14.1338135,24.8167505 14.7467897,24.8762068 15.30925,24.8998369 C15.6032976,24.9135576 18.730004,24.9135576 19.3678611,24.9135576 C19.7855595,24.9135576 25.0784167,24.912033 25.4576627,24.8868785 C27.8447262,24.735951 28.4463929,15.6055991 28.4463929,15.6055991 C28.4463929,15.6055991 28.6959563,15.6071237 28.9485357,15.6040746 C29.3956389,17.6736109 30.367504,22.2829979 30.4662738,26.9693731 C30.5725833,32.0955725 29.5434167,37.2332058 29.0495675,39.3888774 L28.5270675,39.3888774 Z" id="Fill-1" fill="#000000"></path>
        <g id="Group-5" transform="translate(0.000000, 0.718354)">
            <mask id="mask-2" fill="white">
                <use xlink:href="#path-1"></use>
            </mask>
            <g id="Clip-4"></g>
            <path d="M26.6141746,45.0514792 C24.6696905,47.1118683 20.7844921,48.5395816 17.222746,46.9822841 C12.7645317,45.0354717 10.4211984,39.6828811 9.1628254,34.1801253 C8.9728254,33.3492617 8.80770635,32.5176359 8.66294444,31.6913459 C7.79286508,26.7107383 7.66016667,21.1195602 8.45183333,16.1763033 C9.14774603,11.8230357 10.5614365,7.97285981 12.8173095,5.47950693 C13.8909603,4.29419243 15.5112381,3.06924041 17.8033016,2.79101546 C22.5118333,2.21932036 25.3889762,4.8186274 27.1947302,7.6633822 C28.5775079,9.84039712 29.6858413,12.8307436 30.4548889,16.2045069 C31.7275873,21.7873001 32.0593333,28.4250613 31.1394921,34.1801253 C30.4300079,38.6271509 28.9703254,42.5520283 26.6141746,45.0514792 M34.9229048,6.90874467 C31.7863968,2.62103145 26.3171111,-0.421910981 19.3006825,0.102523987 C15.8919921,0.35788113 13.1709206,1.51956557 10.9075079,3.0425613 C4.40151587,7.41640991 0.342150794,15.475024 0.0209603175,25.8105091 C-0.215785714,33.4064312 1.5794127,39.2171402 4.8403254,43.4553065 C8.05976984,47.6393523 13.375246,50.7493737 20.4663175,50.2577159 C26.4535794,49.8453332 31.2013175,46.1026359 34.2586587,41.689912 C37.3778254,37.1895283 39.3223095,31.8354131 39.6600873,24.6343417 C39.9978651,17.4401306 38.0925873,11.2399067 34.9229048,6.90874467" id="Fill-3" fill="#000000" mask="url(#mask-2)"></path>
        </g>
        <path d="M46.7022262,22.3106679 L53.975004,12.0422617 L50.1523849,12.0422617 C49.1910754,12.0422617 48.5087341,12.2854227 48.1038532,12.7709824 C47.8610754,13.0606413 47.6688135,13.5606839 47.5285754,14.2695858 L47.0988135,14.2695858 L47.4313135,11.4034877 L56.1871468,11.4034877 L56.1871468,11.591766 L48.9136151,21.8601722 L53.2165119,21.8601722 C54.1929008,21.8601722 54.9054008,21.6284451 55.3532579,21.1642287 C55.6299643,20.869234 55.8817897,20.3318406 56.1057183,19.5512862 L56.4947659,19.5512862 L56.0808373,22.4989462 L46.7022262,22.4989462 L46.7022262,22.3106679 Z" id="Fill-6" fill="#000000"></path>
        <path d="M59.8521111,16.2430773 C59.6786984,16.538072 59.5542937,16.9092926 59.4796508,17.3567393 L62.8973889,17.3567393 C62.8370714,16.8109611 62.7352857,16.4039142 62.5897698,16.1363609 C62.324373,15.656137 61.8810397,15.4160251 61.2612778,15.4160251 C60.6460397,15.4160251 60.1763175,15.6919632 59.8521111,16.2430773 M63.7312778,15.6164995 C64.3035397,16.148557 64.5892937,16.9039568 64.5892937,17.880412 L59.4472302,17.880412 C59.5000079,19.1442393 59.784254,20.0650496 60.2969524,20.6420805 C60.8104048,21.2191114 61.4173492,21.508008 62.1200476,21.508008 C62.6870317,21.508008 63.1642937,21.358605 63.5525873,21.0590368 C63.9416349,20.7594686 64.3005238,20.3341274 64.6307619,19.7845378 L64.9135,19.8821071 C64.6925873,20.5772884 64.2771508,21.2191114 63.6702063,21.809863 C63.0625079,22.4006146 62.3183413,22.694847 61.4392143,22.694847 C60.423619,22.694847 59.640246,22.3083811 59.0860794,21.5324003 C58.5326667,20.757944 58.2559603,19.8653374 58.2559603,18.8553428 C58.2559603,17.7576882 58.5771508,16.8109611 59.2202857,16.013637 C59.8626667,15.2170752 60.6988175,14.8184131 61.731,14.8184131 C62.4925079,14.8184131 63.1597698,15.0844419 63.7312778,15.6164995" id="Fill-8" fill="#000000"></path>
        <path d="M66.5774325,22.2287249 C67.0750516,22.1852761 67.4037817,22.0968539 67.5658849,21.9626962 C67.7272341,21.8293006 67.8086627,21.5442154 67.8086627,21.106678 L67.8086627,17.41429 C67.8086627,16.8738475 67.7581468,16.4873817 67.660131,16.2556546 C67.5598532,16.0231652 67.3773929,15.9073017 67.111996,15.9073017 C67.0592183,15.9073017 66.9868373,15.914162 66.898623,15.9278827 C66.8089008,15.9416034 66.7161627,15.9591354 66.6189008,15.9812409 L66.6189008,15.7106386 C66.9250119,15.6016354 67.2401706,15.4895832 67.562869,15.3752441 C67.8863214,15.2601429 68.1087421,15.178581 68.2323929,15.1297964 C68.5023135,15.026129 68.7790198,14.9079787 69.0647738,14.7776322 C69.1032262,14.7776322 69.1250913,14.7913529 69.1341389,14.818032 C69.1409246,14.8454733 69.1454484,14.9034051 69.1454484,14.9903028 L69.1454484,16.3334051 C69.4915198,15.8470832 69.8262817,15.4682399 70.1482262,15.1945885 C70.4709246,14.9224616 70.8049325,14.7852548 71.151004,14.7852548 C71.4284643,14.7852548 71.6516389,14.8691034 71.8258056,15.0352761 C71.9977103,15.2022111 72.0851706,15.4110704 72.0851706,15.6618539 C72.0851706,15.8859584 72.0188214,16.0742367 71.887631,16.2266887 C71.7549325,16.379903 71.5883056,16.456129 71.388504,16.456129 C71.1834246,16.456129 70.9775913,16.3608465 70.77025,16.1695192 C70.5606468,15.9781919 70.3970357,15.8829094 70.2794167,15.8829094 C70.0894167,15.8829094 69.8587024,16.0368859 69.58275,16.3456013 C69.3075516,16.6543166 69.1695754,16.9721791 69.1695754,17.2991887 L69.1695754,20.992339 C69.1695754,21.4618913 69.2781468,21.7881386 69.4930278,21.971081 C69.7094167,22.1540235 70.0690595,22.2401588 70.5712024,22.2287249 L70.5712024,22.498565 L66.5774325,22.498565 L66.5774325,22.2287249 Z" id="Fill-10" fill="#000000"></path>
        <path d="M75.9785119,15.735412 C75.4379167,16.2324057 75.1672421,17.089186 75.1672421,18.3065155 C75.1672421,19.2783971 75.3851389,20.1847244 75.8209325,21.0247351 C76.2552183,21.865508 76.8606548,22.2862756 77.6334722,22.2862756 C78.2404167,22.2862756 78.707123,22.0050016 79.0343452,21.4424536 C79.3608135,20.8806679 79.5244246,20.1435624 79.5244246,19.2318993 C79.5244246,18.287459 79.3170833,17.3979014 78.9001389,16.5624643 C78.4831944,15.7270272 77.8792659,15.3093086 77.0906151,15.3093086 C76.6631151,15.3093086 76.2921627,15.4518513 75.9785119,15.735412 M74.6854563,15.9442713 C75.3685516,15.1942074 76.2476786,14.8184131 77.3213294,14.8184131 C78.3904563,14.8184131 79.277123,15.1736263 79.9783135,15.8825283 C80.6802579,16.5929547 81.0308532,17.5366327 81.0308532,18.7158491 C81.0308532,19.8020698 80.6908135,20.7465101 80.0107341,21.54917 C79.3299008,22.3510677 78.4507738,22.753541 77.3703373,22.753541 C76.333631,22.753541 75.4560119,22.3678374 74.7382341,21.5979547 C74.0197024,20.8288342 73.6608135,19.8622884 73.6608135,18.6998417 C73.6608135,17.613621 74.0023611,16.6950975 74.6854563,15.9442713" id="Fill-12" fill="#000000"></path>
        <path d="M46.8561111,41.5625384 C47.5037698,41.4916482 47.9094048,41.3712111 48.0715079,41.1997026 C48.2336111,41.0289563 48.3142857,40.5822719 48.3142857,39.8596493 L48.3142857,32.5960725 C48.3142857,31.9954115 48.2230556,31.6051343 48.0428571,31.4252409 C47.8611508,31.2453475 47.4660714,31.1332953 46.8561111,31.0898465 L46.8561111,30.7788443 L51.4568254,30.7788443 L51.4568254,31.0898465 C50.849881,31.1332953 50.4555556,31.2453475 50.2730952,31.4252409 C50.0906349,31.6051343 49.9986508,31.9954115 49.9986508,32.5960725 L49.9986508,35.8631194 L55.0366667,35.8631194 L55.0366667,32.5960725 C55.0366667,31.9954115 54.9469444,31.6051343 54.7690079,31.4252409 C54.5903175,31.2453475 54.1944841,31.1332953 53.579246,31.0898465 L53.579246,30.7788443 L58.1792063,30.7788443 L58.1792063,31.0898465 C57.5684921,31.1332953 57.1734127,31.2453475 56.9924603,31.4252409 C56.8115079,31.6051343 56.7210317,31.9954115 56.7210317,32.5960725 L56.7210317,40.0555501 C56.7210317,40.6638337 56.8115079,41.0533486 56.9924603,41.2248571 C57.1734127,41.3956034 57.5684921,41.5084179 58.1792063,41.5625384 L58.1792063,41.8735405 L53.579246,41.8735405 L53.579246,41.5625384 C54.2314286,41.496984 54.6378175,41.3780714 54.7969048,41.2035139 C54.9575,41.0304808 55.0366667,40.5822719 55.0366667,39.8596493 L55.0366667,36.6002249 L49.9986508,36.6002249 L49.9986508,40.0555501 C49.9986508,40.6638337 50.0906349,41.0548731 50.2730952,41.2294307 C50.4555556,41.4024638 50.849881,41.5137537 51.4568254,41.5625384 L51.4568254,41.8735405 L46.8561111,41.8735405 L46.8561111,41.5625384 Z" id="Fill-14" fill="#000000"></path>
        <path d="M61.6987302,35.6178241 C61.5253175,35.9128188 61.4009127,36.2840394 61.3262698,36.7314861 L64.7440079,36.7314861 C64.6836905,36.1857079 64.5819048,35.778661 64.4363889,35.5111077 C64.1709921,35.0308838 63.7276587,34.7907719 63.1078968,34.7907719 C62.4926587,34.7907719 62.0229365,35.06671 61.6987302,35.6178241 M65.5778968,34.9912463 C66.1501587,35.5240661 66.4359127,36.2787036 66.4359127,37.2551588 L61.2938492,37.2551588 C61.346627,38.5197484 61.630873,39.4397964 62.1435714,40.0168273 C62.6570238,40.5938582 63.2639683,40.8827548 63.9666667,40.8827548 C64.5336508,40.8827548 65.0109127,40.7333518 65.3992063,40.4337836 C65.788254,40.1342154 66.1471429,39.7088742 66.477381,39.1592846 L66.760119,39.2568539 C66.5392063,39.9520352 66.1237698,40.5938582 65.5168254,41.1846098 C64.909127,41.7753614 64.1649603,42.0703561 63.2858333,42.0703561 C62.2702381,42.0703561 61.4868651,41.6831279 60.9326984,40.9071471 C60.3792857,40.1326908 60.1025794,39.2400842 60.1025794,38.2300896 C60.1025794,37.132435 60.4237698,36.1857079 61.0669048,35.3883838 C61.7092857,34.591822 62.5454365,34.1931599 63.577619,34.1931599 C64.339127,34.1931599 65.0063889,34.4591887 65.5778968,34.9912463" id="Fill-16" fill="#000000"></path>
        <path d="M73.6002698,40.7682633 C73.8596349,40.5174797 73.9893175,40.2796546 73.9893175,40.0555501 L73.9893175,36.5430554 C73.9893175,35.8333913 73.8008254,35.3325864 73.4268571,35.0398785 C73.050627,34.7486951 72.6841984,34.6023412 72.3283254,34.6023412 C71.6474921,34.6023412 71.1189603,34.9072452 70.7404683,35.5147665 C70.3634841,36.1238124 70.1734841,36.8738763 70.1734841,37.7634339 C70.1734841,38.6423198 70.3755476,39.425161 70.7774127,40.1134819 C71.1792778,40.8010405 71.7801905,41.1448198 72.5793968,41.1448198 C73.0008651,41.1448198 73.3409048,41.0190469 73.6002698,40.7682633 M73.3650317,34.3980554 C73.5814206,34.5123945 73.7887619,34.6709446 73.9893175,34.8729435 L73.9893175,32.2690629 C73.9893175,31.9359552 73.952373,31.7065149 73.8799921,31.580742 C73.8061032,31.4549691 73.6326905,31.3924638 73.3574921,31.3924638 C73.2926508,31.3924638 73.2353492,31.3955128 73.1863413,31.4008486 C73.1380873,31.4061844 73.0302698,31.4168561 72.8621349,31.4336258 L72.8621349,31.1630235 L73.526381,30.9915149 C73.7699127,30.9259606 74.0126905,30.8581194 74.2554683,30.786467 C74.498246,30.7155768 74.712373,30.6477356 74.8963413,30.5821812 C74.9815397,30.5547399 75.1255476,30.5029062 75.3245952,30.4266802 L75.3736032,30.4426876 L75.3570159,31.3025171 C75.3524921,31.6135192 75.3464603,31.9344307 75.3411825,32.2652516 C75.3366587,32.5953102 75.3336429,32.9215576 75.3336429,33.2432313 L75.3170556,39.9328262 C75.3170556,40.2880394 75.3600317,40.5365362 75.4467381,40.6783166 C75.5326905,40.820097 75.7618968,40.8909872 76.1343571,40.8909872 C76.1946746,40.8909872 76.2542381,40.8894627 76.3130476,40.8864136 C76.3733651,40.8841269 76.4321746,40.8780288 76.4909841,40.8665949 L76.4909841,41.136435 C76.4585635,41.1478689 76.0665,41.2843134 75.3170556,41.5465309 L74.0451111,42.0290416 L73.9893175,41.9558646 L73.9893175,40.9481567 C73.6854683,41.2812644 73.4253492,41.5190896 73.2029286,41.6608699 C72.8093571,41.9063177 72.3532063,42.0290416 71.8344762,42.0290416 C70.9153889,42.0290416 70.1719762,41.6707793 69.6034841,40.951968 C69.0334841,40.2346812 68.7477302,39.4038177 68.7477302,38.4593774 C68.7477302,37.2748252 69.0900317,36.2579701 69.773127,35.4095746 C70.4562222,34.5604168 71.2908651,34.135838 72.2793175,34.135838 C72.6736429,34.135838 73.0363016,34.2227356 73.3650317,34.3980554" id="Fill-18" fill="#000000"></path>
        <path d="M82.8216786,38.7129813 C83.1458849,38.4507639 83.3079881,37.9956946 83.3079881,37.3454867 C83.3079881,36.8263875 83.1767976,36.2432585 82.9144167,35.5930506 C82.6520357,34.943605 82.2162421,34.6188822 81.6070357,34.6188822 C81.076996,34.6188822 80.7128294,34.8727148 80.5122738,35.3803801 C80.4112421,35.6479334 80.3592183,35.977992 80.3592183,36.3713182 C80.3592183,37.0375336 80.5183056,37.6351455 80.8364802,38.1641541 C81.1561627,38.6939248 81.5685833,38.9584291 82.0767579,38.9584291 C82.3723135,38.9584291 82.621123,38.8768673 82.8216786,38.7129813 M80.2491389,44.3384611 C80.7603294,44.5130187 81.3446548,44.6006786 82.002869,44.6006786 C82.9000913,44.6006786 83.6284246,44.443653 84.189377,44.1288396 C84.7525913,43.8147884 85.0323135,43.4290848 85.0323135,42.9709664 C85.0323135,42.6043193 84.805369,42.3619206 84.3499722,42.2422457 C84.0687421,42.1713555 83.5356865,42.1294312 82.7523135,42.1195219 C82.5525119,42.1134238 82.3398929,42.1073257 82.1189802,42.0981786 C81.8965595,42.0913182 81.6937421,42.0806466 81.5097738,42.0699749 C81.3921548,42.0638769 81.1991389,42.0425336 80.9337421,42.0044206 C80.6690992,41.9663076 80.4715595,41.9335304 80.341877,41.906089 C80.2770357,41.906089 80.1194563,42.0783598 79.867631,42.4221391 C79.6127897,42.7712543 79.4846151,43.0936903 79.4846151,43.388685 C79.4846151,43.8468033 79.7394563,44.1631413 80.2491389,44.3384611 M79.390369,38.2464781 C79.1181865,37.8257106 78.9824722,37.3538715 78.9824722,36.8294366 C78.9824722,36.1906626 79.2327897,35.5846658 79.7349325,35.0122084 C80.2370754,34.4389888 80.9473135,34.152379 81.8656468,34.152379 C82.2592183,34.152379 82.6950119,34.2468993 83.1692579,34.4344152 C83.6450119,34.6234558 84.1011627,34.7172138 84.5384643,34.7172138 C84.6523135,34.7172138 84.8227103,34.7126402 85.0526706,34.7050176 C85.282631,34.6958705 85.448504,34.6928214 85.5502897,34.6928214 L85.6475516,34.6928214 L85.6475516,35.3559877 L84.2474325,35.3559877 C84.3446944,35.5846658 84.4193373,35.7843779 84.473623,35.9535997 C84.5656071,36.2699376 84.6108452,36.5702681 84.6108452,36.8545912 C84.6108452,37.4765954 84.356004,38.0490528 83.8448135,38.5704387 C83.3358849,39.0910624 82.6482659,39.3517553 81.7849722,39.3517553 C81.6492579,39.3517553 81.4064802,39.327363 81.0558849,39.2778161 C80.8983056,39.2778161 80.6909643,39.4119739 80.4315992,39.6795272 C80.1722341,39.9470805 80.0425516,40.1650869 80.0425516,40.3343086 C80.0425516,40.5088662 80.2325516,40.6369259 80.6110437,40.71925 C80.8598532,40.7733705 81.1358056,40.8008118 81.4389008,40.8008118 C82.8277103,40.8008118 83.7716786,40.8808491 84.2692976,41.038637 C85.0865992,41.2955187 85.494496,41.8466327 85.494496,42.6927415 C85.494496,43.5548577 85.0172341,44.2424163 84.0642183,44.7561796 C83.1119563,45.2691807 82.1483849,45.5260624 81.1765198,45.5260624 C80.2921151,45.5260624 79.5894167,45.3438822 79.0706865,44.9810464 C78.5527103,44.6174483 78.2933452,44.2370805 78.2933452,43.8391807 C78.2933452,43.6425176 78.3627103,43.450428 78.4999325,43.2613875 C78.6364008,43.0738715 78.9078294,42.7941221 79.3096944,42.4221391 L79.84275,41.9388662 L79.9400119,41.8412969 C79.6927103,41.7429654 79.5079881,41.6476828 79.3843373,41.5546871 C79.1709643,41.3854654 79.0639008,41.1918513 79.0639008,40.9730826 C79.0639008,40.7710837 79.1566389,40.5485037 79.3421151,40.306105 C79.5290992,40.062944 79.9264405,39.6688555 80.5379087,39.122315 C80.0455675,38.9584291 79.6648135,38.6664835 79.390369,38.2464781" id="Fill-20" fill="#000000"></path>
        <g id="Group-24" transform="translate(87.460317, 33.495539)">
            <mask id="mask-4" fill="white">
                <use xlink:href="#path-3"></use>
            </mask>
            <g id="Clip-23"></g>
            <path d="M1.82015476,2.12228465 C1.64674206,2.41727932 1.5223373,2.7885 1.44769444,3.2359467 L4.86543254,3.2359467 C4.80511508,2.69016844 4.70332937,2.28312154 4.55781349,2.01556823 C4.29241667,1.53534435 3.84908333,1.29523241 3.22932143,1.29523241 C2.61408333,1.29523241 2.14436111,1.57117058 1.82015476,2.12228465 M5.69932143,1.49570682 C6.27158333,2.02852665 6.5573373,2.78316418 6.5573373,3.7596194 L1.41527381,3.7596194 C1.46805159,5.02420896 1.75229762,5.94425693 2.26499603,6.52128785 C2.77844841,7.09831876 3.38539286,7.38721535 4.08809127,7.38721535 C4.6550754,7.38721535 5.1323373,7.23781237 5.52063095,6.93824414 C5.90967857,6.63867591 6.26856746,6.21333475 6.59880556,5.6637452 L6.88154365,5.7613145 C6.66063095,6.45649574 6.24519444,7.09831876 5.63825,7.68907036 C5.03055159,8.27982196 4.28638492,8.57481663 3.40725794,8.57481663 C2.3916627,8.57481663 1.60828968,8.18758849 1.05412302,7.41160768 C0.500710317,6.63715139 0.224003968,5.74454478 0.224003968,4.73455011 C0.224003968,3.63689552 0.545194444,2.69016844 1.18832937,1.89284435 C1.83071032,1.09628252 2.66686111,0.697620469 3.69904365,0.697620469 C4.46055159,0.697620469 5.12781349,0.963649254 5.69932143,1.49570682" id="Fill-22" fill="#000000" mask="url(#mask-4)"></path>
        </g>
    </g>
</svg>